/* XPM */
static char *image_xpm[] = {
/* width height ncolors chars_per_pixel */
"32 32 23 1",
"  c #990033",
". c #660033",
"+ c #330000",
"@ c #330033",
"# c #000000",
"$ c #cc3366",
"% c #666666",
"& c #993333",
"* c #cc6666",
"= c #ffffff",
"- c #cc6699",
"; c #993366",
"> c #333333",
", c #999999",
"' c #cc99cc",
") c #663366",
"! c #ffccff",
"~ c #996666",
"{ c #cccccc",
"] c #663333",
"^ c #ffcccc",
"/ c #cc9999",
"( c #996699",
"============''~-*-/^^===========",
"=========/-&$&$&$&$&$;^=========",
"=======^&& ; ; ; ; ; ; $/=======",
"======/.;&;&$&$&$&$&$&$&$-======",
"====^-.&.&.& ; ; ; ;&$ ; $;=====",
"====(.&.&.;&;&$&$&$&$&$&$&$$====",
"===,+].].&.&.& ;&/{'&; ; ; $~===",
"==^.].].;];.;&;&=====;$&$;$&$'==",
"==].+]+].&.&.&./=====/ ;~- ; $^=",
"={]@]@].].&.&.;^=====/-====$$&^=",
"=%+@+.+]]~;].&/======-{===== ;;=",
"=+>+]@],====!========&======$&$^",
"'@#@+>]======^;&.-(- ;======&$ ^",
",#>+>+/======]'==';&;&^===='$&$/",
"%##+#+%=====//===={&.&&'{=/$ ; /",
"%#@#>+]{====~======;;/^{/;$&$&$/",
">+#+#@#],{'%~======~{====/ ; ; /",
",#>#+>/{,>%,=======;=====^$&$&$/",
"%+#+>======={,{==!]/====== ; ; '",
"{#@#{======%),/~~]/======{;&$&${",
"{+#+{=====(%========{==={~.& ; =",
"=]@#/=====){=====^~.]]~~;.;&;&*=",
"={#++====,#======~+]+].].&.&.&/=",
"==%#>+,~~#@======@].].].;];.;;==",
"==,+#+#+#+#,====~]+.+]+].&.&.^==",
"===(+#>#@#>#%,{%>+]@]@].].&.-===",
"====)##+#+#+###+#++@+.+]+].~{===",
"=====%@#>#@#>#@#>+>+]@]@].~=====",
"======%+#+#+#+#+#@#@+>+.+({=====",
"======={]#@#+#>#+#>+>+]]{=======",
"=========,]+#+#+###+#],=========",
"============{,%>%],,============",
};