/* XPM */
static char *image_xpm[] = {
/* width height ncolors chars_per_pixel */
"64 64 369 2",
"   c #cdaab5",
" . c #faf2f4",
" + c #b48c97",
" @ c #8e2e4a",
" # c #d4869b",
" $ c #852c46",
" % c #554449",
" & c #baa6ab",
" * c #d4d0d1",
" = c #f5f0f2",
" - c #ccaab4",
" ; c #efd7de",
" > c #c26b85",
" , c #741c35",
" ' c #a0576c",
" ) c #c97990",
" ! c #ba8d9a",
" ~ c #d393a6",
" { c #a04b63",
" ] c #d1c3c7",
" ^ c #bc5e79",
" / c #a53455",
" ( c #b87589",
" _ c #b95d78",
" : c #a2576d",
" < c #cd92a3",
" [ c #f1f0f0",
" } c #835c67",
" | c #83505f",
" 1 c #81676f",
" 2 c #7a666b",
" 3 c #a9284d",
" 4 c #d6d1d2",
" 5 c #882d47",
" 6 c #dcbac4",
" 7 c #ad284d",
" 8 c #352429",
" 9 c #b53558",
" 0 c #7d1e3a",
" a c #926c77",
" b c #f9f1f3",
" c c #e9c9d2",
" d c #b54363",
" e c #f3e4e8",
" f c #b28b97",
" g c #d5c5c9",
" h c #7d7376",
" i c #f2f0f0",
" j c #240810",
" k c #552c38",
" l c #908386",
" m c #4a1121",
" n c #9f878e",
" o c #61474e",
" p c #af4f6b",
" q c #801f3b",
" r c #b48c98",
" s c #7a2940",
" t c #9f264a",
" u c #bea7ad",
" v c #bd5e7a",
" w c #b7506e",
" x c #e3e0e1",
" y c #e1bbc7",
" z c #ffffff",
" A c #8d8285",
" B c #e9e1e4",
" C c #c9a9b2",
" D c #9d868d",
" E c #55202f",
" F c #534448",
" G c #f6f1f3",
" H c #5f2334",
" I c #9e6f7d",
" J c #903b54",
" K c #a23f5c",
" L c #cfc3c6",
" M c #605357",
" N c #ae7284",
" O c #ebc9d3",
" P c #745860",
" Q c #744c57",
" R c #f4f1f2",
" S c #af3558",
" T c #e2c8cf",
" U c #381921",
" V c #ddd3d6",
" W c #18050a",
" X c #9c3150",
" Y c #b1a3a7",
" Z c #d9d1d3",
" ` c #f2f0f1",
".  c #b34f6d",
".. c #ded3d6",
".+ c #ebe2e4",
".@ c #8b5e6b",
".# c #9d2649",
".$ c #a8284d",
".% c #a73456",
".& c #847479",
".* c #28151a",
".= c #f1d7de",
".- c #8b8284",
".; c #dfd3d6",
".> c #ac284d",
"., c #be9ba5",
".' c #8f2242",
".) c #b0284d",
".! c #e6e1e2",
".~ c #1a050b",
".{ c #b58c98",
".] c #814355",
".^ c #b9a5ab",
"./ c #952445",
".( c #c65e7a",
"._ c #bc5e7a",
".: c #e3bcc7",
".< c #7a1d38",
".[ c #a8a1a3",
".} c #eed7de",
".| c #846870",
".1 c #c19ba6",
".2 c #b73558",
".3 c #e6d5da",
".4 c #995569",
".5 c #b799a2",
".6 c #622335",
".7 c #814f5d",
".8 c #c4788e",
".9 c #9a9193",
".0 c #c76b85",
".a c #894559",
".b c #9b7a84",
".c c #b598a1",
".d c #9a9294",
".e c #7a4d5a",
".f c #fbf2f4",
".g c #f3f0f1",
".h c #563841",
".i c #977981",
".j c #ccc2c5",
".k c #886972",
".l c #cc869b",
".m c #bc4363",
".n c #d3acb7",
".o c #e7e1e3",
".p c #bb8293",
".q c #c4b4b9",
".r c #b65c77",
".s c #362429",
".t c #753447",
".u c #7c5a64",
".v c #ce93a4",
".w c #e3c8d0",
".x c #8f777e",
".y c #dad2d4",
".z c #63484f",
".A c #831f3d",
".B c #a33354",
".C c #ba99a3",
".D c #b999a2",
".E c #522b36",
".F c #96485f",
".G c #9c6e7c",
".H c #3c262c",
".I c #edd6dd",
".J c #280911",
".K c #e7c9d2",
".L c #e9d5db",
".M c #e4bcc7",
".N c #a1878e",
".O c #f7f1f3",
".P c #1d060c",
".Q c #c16b84",
".R c #cd869b",
".S c #f8f2f3",
".T c #645459",
".U c #b6a4a9",
".V c #390d19",
".W c #c77990",
".X c #421b26",
".Y c #89213f",
".Z c #8c2241",
".` c #3c0e1b",
"+  c #e9c9d3",
"+. c #cb7990",
"++ c #b13558",
"+@ c #f4f0f1",
"+# c #67192f",
"+$ c #c5788e",
"+% c #ac667a",
"+& c #dda1b1",
"+* c #be8e9c",
"+= c #c05e7a",
"+- c #b68d99",
"+; c #915f6d",
"+> c #c98599",
"+, c #6b263a",
"+' c #a7284d",
"+) c #b05b74",
"+! c #a36476",
"+~ c #ab284d",
"+{ c #541426",
"+] c #b94363",
"+^ c #922343",
"+/ c #c5b4b9",
"+( c #f9f2f4",
"+_ c #d394a6",
"+: c #af284d",
"+< c #3f272e",
"+[ c #99314f",
"+} c #a24b65",
"+| c #ecc9d3",
"+1 c #6c3e4b",
"+2 c #682538",
"+3 c #c18f9e",
"+4 c #f4e4e9",
"+5 c #b7b1b2",
"+6 c #d193a5",
"+7 c #7d676d",
"+8 c #945467",
"+9 c #5a2e3a",
"+0 c #bf6b83",
"+a c #e4c8d0",
"+b c #c38496",
"+c c #c7b5ba",
"+d c #ead6dc",
"+e c #b14363",
"+f c #ede2e6",
"+g c #352428",
"+h c #95606f",
"+i c #433438",
"+j c #c58497",
"+k c #debbc5",
"+l c #dcaebb",
"+m c #693141",
"+n c #c1506e",
"+o c #2f0b15",
"+p c #6f6366",
"+q c #524447",
"+r c #807377",
"+s c #d5c4c9",
"+t c #a4274c",
"+u c #efe3e7",
"+v c #b28c97",
"+w c #a2274b",
"+x c #eee3e6",
"+y c #ceb7be",
"+z c #674951",
"+A c #aa7182",
"+B c #58454a",
"+C c #6a1931",
"+D c #953c56",
"+E c #5e162b",
"+F c #693d4a",
"+G c #a77180",
"+H c #350c18",
"+I c #d9a1b1",
"+J c #501325",
"+K c #711b34",
"+L c #b98d9a",
"+M c #bd6a83",
"+N c #f6f1f2",
"+O c #c99daa",
"+P c #771c37",
"+Q c #e0c7cf",
"+R c #bc8e9c",
"+S c #d9adba",
"+T c #91475d",
"+U c #461020",
"+V c #43282f",
"+W c #9a6172",
"+X c #bcb2b5",
"+Y c #d5acb8",
"+Z c #c3b4b8",
"+` c #cbb6bc",
"@  c #864458",
"@. c #925366",
"@+ c #bab1b4",
"@@ c #5b2232",
"@# c #9a2547",
"@$ c #e4d4d9",
"@% c #d8a1b1",
"@& c #e6bcc7",
"@* c #e8e2e3",
"@= c #8c5e6b",
"@- c #a9a1a3",
"@; c #c87990",
"@> c #d993a6",
"@, c #912f4b",
"@' c #21070e",
"@) c #563941",
"@! c #8b465a",
"@~ c #cc7990",
"@{ c #400f1d",
"@] c #60474e",
"@^ c #e1c7cf",
"@/ c #c5c1c2",
"@( c #613b46",
"@_ c #f8f1f3",
"@: c #cec3c6",
"@< c #a6284d",
"@[ c #d893a6",
"@} c #aa284d",
"@| c #c9c1c3",
"@1 c #8e465b",
"@2 c #7c4253",
"@3 c #571528",
"@4 c #b38c97",
"@5 c #4d1223",
"@6 c #875d69",
"@7 c #b2284d",
"@8 c #c8b5ba",
"@9 c #bb8e9b",
"@0 c #dfc7ce",
"@a c #43101e",
"@b c #ac3558",
"@c c #b4687e",
"@d c #e0c7ce",
"@e c #e2e0e1",
"@f c #926b77",
"@g c #caa9b3",
"@h c #261519",
"@i c #932f4d",
"@j c #eed7dd",
"@k c #a87181",
"@l c #73273e",
"@m c #c891a1",
"@n c #eac9d3",
"@o c #e0d3d7",
"@p c #972446",
"@q c #481d29",
"@r c #a69599",
"@s c #e6c9d1",
"@t c #86203e",
"@u c #e2aebc",
"@v c #6e1a32",
"@w c #b77588",
"@x c #8e8286",
"@y c #ac969d",
"@z c #5a1529",
"@A c #ece2e5",
"@B c #e1aebc",
"@C c #63303e",
"@D c #7e5b64",
"@E c #e0aebc",
"@F c #c0778c",
"@G c #e4e0e2",
"@H c #983d57",
"@I c #723345",
"@J c #f1eff0",
"@K c #6a4a53",
"@L c #a83556",
"@M c #d593a6",
"@N c #64182e",
"@O c #320b16",
"@P c #9e566b",
"@Q c #b43558",
"@R c #be5e7a",
"@S c #e5c8d1",
"@T c #deaebc",
"@U c #61172c",
"@V c #8c8285",
"@W c #684952",
"@X c #c6a9b1",
"@Y c #a06f7d",
"@Z c #d493a6",
"@` c #2b0a13",
"#  c #bfa7ae",
" z z z z z z z z z z z z z z z z z z z z z z z z z z z z ;+ + + + + @n@n . z z z z z z z z z z z z z z z z z z z z z z z z z z z",
" z z z z z z z z z z z z z z z z z z z z z z z ;@% >+e@<@<@<@<@<+'+'+'.$.$ S+=@M O z z z z z z z z z z z z z z z z z z z z z z z",
" z z z z z z z z z z z z z z z z z z z z+4.l+e@<@<@<@<@<@<@<@<@<@<+'+'+'.$.$ 3@}+~++@~@& z z z z z z z z z z z z z z z z z z z z",
" z z z z z z z z z z z z z z z z z z@s.r t+w+t@<@<@<@<@<@<@<@<@<@<@<+'+'+'.$.$ 3@}+~.> 7+]+&.f z z z z z z z z z z z z z z z z z",
" z z z z z z z z z z z z z z z z+a+)@p@#.# t+w+t@<@<@<@<@<@<@<@<@<@<@<+'+'+'.$.$ 3@}+~.> 7+: 9@u z z z z z z z z z z z z z z z z",
" z z z z z z z z z z z z z z.S (.'+^./@p@#.# t+w+t@<@<@<@<@<@<@<@<@<@<@<+'+'+'.$.$ 3@}+~.> 7+:.)+n.= z z z z z z z z z z z z z z",
" z z z z z z z z z z z z z+Q @.Y.Z.'+^./@p@#.# t+w+t@<@<@<@<@<@<@<@<@<@<@<+'+'+'.$.$ 3@}+~.> 7+:.)@7@> z z z z z z z z z z z z z",
" z z z z z z z z z z z z+* q.A@t.Y.Z.'+^./@p@#.# t+w+t@<@<@<@<@<@<@<@<@<@<@<+'+'+'.$.$ 3@}+~.> 7+:.)@7.(.f z z z z z z z z z z z",
" z z z z z z z z z z z+A.< 0 q.A@t.Y.Z.'+^./@p@#.# t+w+t@<@<@<@<@<@<@<@<@<@<@<+'+'+'.$.$ 3@}+~.> 7+:.)@7+n.= z z z z z z z z z z",
" z z z z z z z z z G+G ,+P.< 0 q.A@t.Y.Z.'+^./@p@#.# t+w+t@<@<@<@<@<@<@<@<@<@<@<+'+'+'.$.$ 3@}+~.> 7+:.)@7.2.= z z z z z z z z z",
" z z z z z z z z z+W@v+K ,+P.< 0 q.A@t.Y.Z.'+^./@p@#.# t+w+t@<@<@<@<@<@<@<@<@<@<@<+'+'+'.$.$ 3@}+~.> 7+:.)@7.2.= z z z z z z z z",
" z z z z z z z z I+#+C@v+K ,+P.< 0 q.A@t.Y.Z.'+^./@p@#.# t+w+t@<@<@<@<@<@<@<@<@<@<@<+'+'+'.$.$ 3@}+~.> 7+:.)@7.m.f z z z z z z z",
" z z z z z z z.D@U@N+#+C@v+K ,+P.< 0 q.A@t.Y.Z.'+^./@p@#.# t+w+t@<@<@<+e._._+e@<@<@<@<+'+'+'.$.$ 3@}+~.> 7+:.)@7+n z z z z z z z",
" z z z z z z@o@z+E@U@N+#+C@v+K ,+P.< 0 q.A@t.Y.Z.'+^./@p@#.# t+w+t ^+  z z z z+  w@<@<@<+'+'+'.$.$ 3@}+~.> 7+:.)@7 # z z z z z z",
" z z z z z R+m@3@z+E@U@N+#+C@v+K ,+P.< 0 q.A@t.Y.Z.'+^./@p@#.# t+$ z z z z z z z z.W@<@<@<+'+'+'.$.$ 3@}+~.> 7+:.)@7+| z z z z z",
" z z z z z.b+J+{@3@z+E@U@N+#+C@v+K ,+P.< 0 q.A@t.Y.Z.'+^./@p@# p z z z z z z z z z+(+e@<@<@<+'+'+'.$.$ 3@}+~.> 7+:.).m z z z z z",
" z z z z@* m@5+J+{@3@z+E@U@N+#+C@v+K ,+P.< 0 q.A@t.Y.Z.'+^./@p+S z z z z z z z z z z@T@<@<@<@<+'+'+'.$.$ 3@}+~.> 7+:.)@> z z z z",
" z z z z@D+U m@5+J+{@3@z+E@U@N+#+C@v+K ,+P.< 0 q.A@t.Y.Z.'+^./ b z z z z z z z z z z+(@<@<@<@<@< v+_+_@R.$ 3@}+~.> 7+: 9.f z z z",
" z z z.o@{@a+U m@5+J+{@3@z+E@U@N+#+C@v+K ,+P.< 0 q.A@t.Y.Z.'@c z z z z z z z z z z z z@<@<@<.R+( z z z z . ) 3@}+~.> 7+:@[ z z z",
" z z z.|.`@{@a+U m@5+J+{@3@z+E@U@N+#+C@v+K ,+P.< 0 q.A@t.Y.Z+d z z z z z z z z z z z z@<@<@% z z z z z z z z+I 3@}+~.> 7@Q z z z",
" z z.g+H.V.`@{@a+U m@5+J+{@3@z+E@U@N+#+C@v+K ,+P.< 0 q.A@t.n z z z z z z z z z z z z.}@<._ z z z z z z z z z z@R 3@}+~.> 7@B z z",
" z z Y@O+H.V.`@{@a+U m@5+J+{@3@z+2.G+v +.{.a+K ,+P.< 0 J@d z z z z z z z z z z z z z.W@<.: z z z z z z z z z z.M.$ 3@}+~.>.0 z z",
" z z o+o@O+H.V.`@{@a+U m@5+J+{@= = z z z z z+f.1 !@9.3 z z z z z z z z z z z z z z@j@<@< z z z z z z z z z z z z.$.$ 3@}+~.> . z",
" z i.J@`+o@O+H.V.`@{@a+U m@5@f z z z z z z z z z z z z z z z@d@^@^@_ z z z z z z.I.%+t@< z z z z z z z z z z z z+'.$.$ 3@}+~@E z",
" z@+ j.J@`+o@O+H.V.`@{@a+U E+@ z z z z z z z z z z z z z+R $ q.A@t.Y@w 6.w+a+k@F.# t+w+t z z z z z z z z z z z z+'+'.$.$ 3@}+. z",
" z@x@' j.J@`+o@O+H.V.`@{@a.i z z z z z z z z z z z z+N@1+P.< 0 q.A@t.Y.Z.'+^./@p@#.# t+w@j z z z z z z z z z z.}+'+'+'.$.$ 3 d z",
" z F.P@' j.J@`+o@O+H.V.`@{.q z z z z z z z z z z z z@.+K ,.4  @0+u+Q.p@,.Z.'+^./@p@#.# t.8 z z z z z z z z z z.W@<+'+'+'.$.$ 3 z",
" z+g.~.P@' j.J@`+o@O+H.V.` L z z z z z z z z z z z@X+C@v@g z z z z z z@_ {.Z.'+^./@p@#.# t.K z z z z z z z z+ @<@<@<+'+'+'.$.$@n",
" z W W.~.P@' j.J@`+o@O+H.V@: z z z z z z z z z z z+h+#., z z z z z z z z@_@H.Z.'+^./@p@#.# / y z z z z z z@T@b@<@<@<@<+'+'+'.$@n",
" z W W W.~.P@' j.J@`+o@O+H.x z z z z z z z z z z z+,.] z z z z z z z z z z@^.Y.Z.'+^./@p@#.# t. +6 c+ +_ w@<@<@<@<@<@<@<+'+'+'@Z",
"@/ W W W W.~.P@' j.J@`+o@O.X ` z z z z z z z z z.5+E.C z z z z z z z z z z z+D.Y.Z.'+^ K+j <.v+M+w+t@<@<@<@<@<@<@<@<@<@<@<+'+' ~",
"@/ W W W W W.~.P@' j.J@`+o@O P z z z z z z z z.;.6@z.+ z z z z z z z z z z z :@t.Y@i+Y z z z z z e _+t@<@<@<@<@<@<@<@<@<@<@<+' ~",
"@/ W W W W W W.~.P@' j.J@`+o@O+z.! z z z z z+c@@+{.@ z z z z z z z z z z z z '.A @.L z z z z z z z z+0+t@<@<@<@<@<@<@<@<@<@<@< ~",
"@/ W W W W W W W.~.P@' j.J@`+o@O+H@K D n.N+F m@5@@+@ z z z z z z z z z z z z.F q+O z z z z z z z z z+(@L+t@<@<@<@<@<@<@<@<@<@< ~",
" z W W W W W W W W.~.P@' j+V@]@)@O+H.V.`@{@a+U+1 B z z z z z z z z z z z z+x.< 0 z z z z z z z z z z z+>+w+t@<@<@<@<@<@<@<@<@< ~",
" z W W W W W W W W W.~+r x z z z i@r@W.V@q.u.^ z z z z z z z z z z z z z z@k+P+! z z z z z z z z z z z.K t+w+t@<@<@<@<@<@<@<@<+ ",
" z+g W W W W W W W W.[ z z z z z z z z z z z z z z z z z z z z z z z z z C+K , - z z z z z z z z z z z@s.# t+w+t@<@<@<@<@<@<@<+ ",
" z+q W W W W W W W@V z z z z z z z z z z z z z.g@y Q E@C@6 u z z z z@A@Y+C@v+8 z z z z z z z z z z z z@S@#.# t+w+t@<@<@<@<@<@< z",
" z.- W W W W W W@h@J z z z z z z z z z z z z.y k@{@a+U m@5+J+{.7 |@2@U@N+#@ +N z z z z z z z z z z z z+b@p@#.# t+w+t@<@<@<@< w z",
" z+5 W W W W W W+q z z z z z z z z z z z z Z.X.V.`.k+/ ] V@8 a H@3@z+E.t f z z z z z z z z z z z z z@_+[./@p@#.# t+w+t@<@<@<@; z",
" z [ W W W W W W@V z z z z z z z z z z z z.h@O.X.y z z z z z z z+s g@o z z z z z z z z z z z z z z z@w.'+^./@p@#.# t+w+t@<@<@T z",
" z z M W W W W W@V z z z z z z z z z z z+X@`+o Z z z z z z z z z z z z z z z+y@4 r+-@$ z z z z z.O+%.Y.Z.'+^./@p@#.# t+w+t@< . z",
" z z.[ W W W W W M z z z z z z z z z z z.&.J 2 z z z z z z z z z z z z z+`@I@U@N+#+C@v@!+L@9+R N 5.A@t.Y.Z.'+^./@p@#.# t+w.Q z z",
" z z [ W W W W W W@J z z z z z z z z z z.H j@| z z z z z z z z z z z z# @3@z+E@U@N+#+C@v+K ,+P.< 0 q.A@t.Y.Z.'+^./@p@#.# t+l z z",
" z z z+p W W W W W M z z z z z z z z z A.P@' z z z z z z z z z z z z..+J+{@3@z+E@U@N+#+C@v+K ,+P.< 0 q.A@t.Y.Z.'+^./@p@#.B z z z",
" z z z@e W W W W W W+p z z z z z z z.d W.~.P z z z z z z z z z z z z }@5+J+{@3@z+E@U@N+#+C@v+K ,+P.< 0 q.A@t.Y.Z.'+^./@p < z z z",
" z z z z+p W W W W W W 8.[ * z@J+5+q W W W.~@J z z z z z z z z z z z+U m@5+J+{@3@z+E@U@N+#+C@v+K ,+P.< 0 q.A@t.Y.Z.'+^ X+( z z z",
" z z z z@e W W W W W W W W W W W W W W W W W@- z z z z z z z z z z+Z@a+U m@5+J+{@3@z+E@U@N+#+C@v+K ,+P.< 0 q.A@t.Y.Z.'@m z z z z",
" z z z z z.- W W W W W W W W W W W W W W W W 8@J z z z z z z z z z@(@{@a+U m@5+J+{@3@z+E@U@N+#+C@v+K ,+P.< 0 q.A@t.Y+} z z z z z",
" z z z z z [+g W W W W W W W W W W W W W W W W+p z z z z z z z z 1.V.`@{@a+U m@5+J+{@3@z+E@U@N+#+C@v+K ,+P.< 0 q.A@t T z z z z z",
" z z z z z z * W W W W W W W W W W W W W W W W W+i@/ z z z z@G.z@O+H.V.`@{@a+U m@5+J+{@3@z+E@U@N+#+C@v+K ,+P.< 0 q+3 z z z z z z",
" z z z z z z z.[ W W W W W W W W W W W W W W W W W W.* %+B+<.J@`+o@O+H.V.`@{@a+U m@5+J+{@3@z+E@U@N+#+C@v+K ,+P.<@P z z z z z z z",
" z z z z z z z z+p W W W W W W W W W W W W W W W W W W.~.P@' j.J@`+o@O+H.V.`@{@a+U m@5+J+{@3@z+E@U@N+#+C@v+K ,+T.O z z z z z z z",
" z z z z z z z z z+p W W W W W W W W W W W W W W W W W W.~.P@' j.J@`+o@O+H.V.`@{@a+U m@5+J+{@3@z+E@U@N+#+C@v s+x z z z z z z z z",
" z z z z z z z z z z+p W W W W W W W W W W W W W W W W W W.~.P@' j.J@`+o@O+H.V.`@{@a+U m@5+J+{@3@z+E@U@N+#@l@$ z z z z z z z z z",
" z z z z z z z z z z z+p W W W W W W W W W W W W W W W W W W.~.P@' j.J@`+o@O+H.V.`@{@a+U m@5+J+{@3@z+E@U.]+N z z z z z z z z z z",
" z z z z z z z z z z z z.9 W W W W W W W W W W W W W W W W W W.~.P@' j.J@`+o@O+H.V.`@{@a+U m@5+J+{@3@z+;+N z z z z z z z z z z z",
" z z z z z z z z z z z z z@/+g W W W W W W W W W W W W W W W W W.~.P@' j.J@`+o@O+H.V.`@{@a+U m@5+J+{.c z z z z z z z z z z z z z",
" z z z z z z z z z z z z z z [ h W W W W W W W W W W W W W W W W W.~.P@' j.J@`+o@O+H.V.`@{@a+U m.e.. z z z z z z z z z z z z z z",
" z z z z z z z z z z z z z z z z *+q W W W W W W W W W W W W W W W W.~.P@' j.J@`+o@O+H.V.`@{+9 & z z z z z z z z z z z z z z z z",
" z z z z z z z z z z z z z z z z z z@/ M W W W W W W W W W W W W W W W.~.P@' j.J@`+o@O+H.E.U z z z z z z z z z z z z z z z z z z",
" z z z z z z z z z z z z z z z z z z z z@e.-+i W W W W W W W W W W W W W.~.P@' j.J U+7.j z z z z z z z z z z z z z z z z z z z z",
" z z z z z z z z z z z z z z z z z z z z z z z@e.[+p+i W W W W W W W W W W.s.T l 4 z z z z z z z z z z z z z z z z z z z z z z z",
" z z z z z z z z z z z z z z z z z z z z z z z z z z z z@e@/@/@/@/@/@/ * z z z z z z z z z z z z z z z z z z z z z z z z z z z z",
};